<svg width="40" height="44" viewBox="0 0 40 44" fill="none" xmlns="http://www.w3.org/2000/svg">
<path d="M19.7274 9.38773e-05C18.1524 9.38773e-05 16.6815 0.717281 15.4277 1.89169C14.174 3.06637 13.1008 4.70231 12.2061 6.68391C12.0186 7.09903 11.8396 7.53047 11.6684 7.9755C11.2067 7.90222 10.7431 7.84201 10.2781 7.79494C9.73712 7.74103 9.20931 7.70756 8.6965 7.69556C7.15712 7.659 5.75022 7.81509 4.51712 8.18887C2.87312 8.68734 1.51656 9.60291 0.729061 10.9667C-0.0584384 12.3307 -0.172814 13.9633 0.217468 15.6364C0.607936 17.3093 1.48797 19.0567 2.75687 20.8224C3.02312 21.1927 3.30756 21.5642 3.60775 21.9355C3.31407 22.2981 3.0307 22.6688 2.758 23.0474C1.489 24.813 0.608968 26.5604 0.218593 28.2335C-0.171782 29.9065 -0.0573133 31.5391 0.730187 32.9029C1.51769 34.2669 2.87425 35.1824 4.51825 35.6807C6.16234 36.1792 8.11572 36.2907 10.2792 36.0746C10.7327 36.0292 11.1961 35.9687 11.6674 35.8944C11.8347 36.3307 12.0144 36.7622 12.2061 37.1884C13.1008 39.1702 14.1739 40.8059 15.4277 41.9805C16.6814 43.155 18.1525 43.8724 19.7274 43.8724C21.3022 43.8724 22.7733 43.155 24.0271 41.9805C25.2807 40.8058 26.3539 39.1702 27.2486 37.1884C27.4403 36.7623 27.62 36.3309 27.7873 35.8946C28.2581 35.9687 28.721 36.0293 29.1742 36.0746C31.3378 36.2906 33.2912 36.1792 34.9352 35.6807C36.5793 35.1823 37.9359 34.2667 38.7234 32.9029C39.5109 31.5388 39.6253 29.9064 39.235 28.2335C38.8445 26.5605 37.9644 24.8131 36.6956 23.0474C36.4228 22.6689 36.1394 22.2981 35.8457 21.9355C36.1399 21.5727 36.4236 21.2015 36.6966 20.8225C37.9655 19.0568 38.8456 17.3094 39.2359 15.6365C39.6263 13.9634 39.5118 12.3308 38.7243 10.9668C37.9368 9.603 36.5803 8.68744 34.9363 8.18897C33.7033 7.81519 32.2963 7.65909 30.7571 7.69556C30.2439 7.70756 29.716 7.74103 29.1752 7.79494C28.7214 7.84031 28.2576 7.90116 27.7861 7.97541C27.6189 7.53995 27.4396 7.10928 27.2482 6.68391C26.3536 4.70203 25.2804 3.06609 24.0267 1.89159C22.773 0.717094 21.3018 0 19.727 0L19.7274 9.38773e-05ZM19.7274 1.752C20.7779 1.752 21.8079 2.21353 22.8292 3.17044C23.8504 4.12716 24.8258 5.57541 25.6517 7.40484C25.7861 7.70333 25.9138 8.00475 26.0348 8.30888C24.027 8.75531 21.9004 9.44025 19.7268 10.3554C17.5537 9.44044 15.4275 8.75569 13.42 8.30925C13.5439 7.99894 13.6712 7.6965 13.8031 7.40475C14.629 5.57522 15.6044 4.12697 16.6257 3.17006C17.647 2.21334 18.6769 1.75181 19.7276 1.75181L19.7274 1.752ZM8.14084 9.44484C8.30997 9.44316 8.48181 9.44428 8.65628 9.44822C9.12128 9.45853 9.60475 9.48853 10.1041 9.5385C10.4234 9.57037 10.7497 9.61116 11.0813 9.65925C10.4639 11.6212 9.99381 13.8051 9.69925 16.1449C7.81975 17.5699 6.16319 19.0693 4.77269 20.5852C4.56918 20.3278 4.37141 20.0659 4.17953 19.7997C3.00812 18.1698 2.24172 16.601 1.92362 15.238C1.60562 13.8751 1.72112 12.7524 2.24631 11.8427C2.7715 10.9329 3.68631 10.2717 5.02544 9.86569C5.90434 9.59916 6.95669 9.45553 8.14075 9.44475L8.14084 9.44484ZM31.3128 9.44484C32.4969 9.45562 33.5492 9.59925 34.4282 9.86578C35.7675 10.2717 36.6819 10.9329 37.2072 11.8427C37.7324 12.7524 37.848 13.8752 37.53 15.238C37.2122 16.6009 36.4453 18.1698 35.2741 19.7997C35.0822 20.0659 34.8845 20.3279 34.6811 20.5853C33.2908 19.0697 31.6347 17.5706 29.7557 16.1458C29.4614 13.8056 28.9907 11.6214 28.3733 9.65925C28.7045 9.61116 29.0305 9.57019 29.3495 9.5385C29.8308 9.48974 30.3138 9.45959 30.7974 9.44812C30.9692 9.44422 31.141 9.44306 31.3128 9.44466V9.44484ZM26.6328 9.97359C27.0988 11.4209 27.4846 13.0178 27.7725 14.7267C26.8424 14.0984 25.8903 13.5032 24.9182 12.9422C23.9467 12.381 22.9558 11.8544 21.9472 11.3632C23.571 10.758 25.1466 10.2937 26.6328 9.97378V9.97359ZM12.8219 9.97387C14.3078 10.2939 15.8833 10.7582 17.5066 11.3632C16.498 11.8545 15.5071 12.3811 14.5356 12.9422C13.5639 13.503 12.6122 14.0978 11.6824 14.7257C11.9702 13.0173 12.3559 11.4208 12.8219 9.97387ZM19.7268 12.267C21.1525 12.8959 22.5996 13.6267 24.0422 14.4596C25.4852 15.2929 26.8425 16.1809 28.1001 17.1015C28.2685 18.6509 28.3591 20.2701 28.3591 21.9362C28.3591 23.6014 28.2688 25.2199 28.1005 26.7686C26.8428 27.6891 25.4858 28.5769 24.0432 29.4099C22.6004 30.2429 21.1529 30.9741 19.7269 31.6029C18.3008 30.9741 16.8533 30.2429 15.4105 29.4099C13.9682 28.5772 12.6117 27.6896 11.3545 26.7696C11.1862 25.2205 11.0957 23.6017 11.0957 21.9361C11.0957 20.2697 11.1862 18.6503 11.3547 17.1007C12.6122 16.1804 13.9689 15.2925 15.4115 14.4596C16.8542 13.6268 18.3013 12.8959 19.7268 12.2672V12.267ZM19.8453 14.9029L14.8295 17.9982L19.8453 21.0938L24.8612 17.9982L19.8453 14.9028V14.9029ZM9.46159 18.5717C9.38277 19.6914 9.34346 20.8135 9.34375 21.9359C9.34375 23.0795 9.38406 24.202 9.46168 25.2982C8.12575 24.1947 6.93578 23.0622 5.9154 21.9351C6.93578 20.808 8.12565 19.6753 9.46159 18.5717ZM29.9933 18.5726C31.3286 19.6761 32.5183 20.8083 33.5383 21.9352C32.5183 23.062 31.3286 24.1942 29.9933 25.2974C30.0721 24.1787 30.1113 23.0575 30.1111 21.936C30.1111 20.7919 30.0707 19.6691 29.9932 18.5726H29.9933ZM13.6996 19.3596V25.4719L18.9674 28.7228V22.6108L13.6996 19.3596ZM25.9862 19.3627L20.7197 22.6131V28.7222L25.9863 25.4719V19.3627H25.9862ZM4.7725 23.2852C6.16319 24.8012 7.81956 26.3002 9.69887 27.7252C9.99325 30.0648 10.4635 32.2485 11.0807 34.2104C10.7498 34.2582 10.4239 34.2992 10.1052 34.3311C8.10793 34.5305 6.36578 34.4098 5.02656 34.0039C3.68725 33.5979 2.77281 32.9364 2.24753 32.0267C1.72234 31.1168 1.60675 29.9942 1.92475 28.6313C2.24275 27.2685 3.00925 25.6996 4.18065 24.0697C4.37214 23.8038 4.5694 23.5423 4.7725 23.2852ZM34.681 23.2855C34.8879 23.548 35.086 23.8096 35.2728 24.0697C36.4442 25.6995 37.2107 27.2684 37.5286 28.6312C37.8466 29.9941 37.7313 31.1167 37.2062 32.0266C36.6808 32.9363 35.7662 33.5978 34.4268 34.0038C33.0877 34.4097 31.3458 34.5304 29.3486 34.331C29.0229 34.2979 28.698 34.2578 28.3741 34.2105C28.9914 32.2481 29.4616 30.0639 29.7559 27.7239C31.6347 26.2993 33.2909 24.8006 34.6811 23.2853L34.681 23.2855ZM27.7728 29.1433C27.485 30.852 27.0993 32.4489 26.6334 33.8962C25.1471 33.5762 23.5712 33.1117 21.9474 32.5066C22.9563 32.0152 23.9475 31.4883 24.9193 30.9271C25.8912 30.3662 26.843 29.7713 27.773 29.1433H27.7728ZM11.6821 29.1442C12.6115 29.7719 13.5629 30.3666 14.5343 30.9271C15.5061 31.4883 16.4973 32.0151 17.5062 32.5066C15.8828 33.1116 14.3074 33.576 12.8212 33.896C12.3553 32.449 11.9699 30.8525 11.6821 29.1442ZM19.7792 29.2239L19.843 29.2633L19.9065 29.2239H19.7793H19.7792ZM19.7267 33.5146C21.9008 34.4296 24.0274 35.1144 26.0356 35.5608C25.9143 35.8658 25.7864 36.168 25.6517 36.4673C24.8258 38.2967 23.8504 39.7448 22.8291 40.7017C21.8079 41.6586 20.7779 42.1202 19.7274 42.1202C18.6768 42.1202 17.6468 41.6586 16.6256 40.7017C15.6044 39.7449 14.629 38.2967 13.8031 36.4672C13.6685 36.1679 13.5405 35.8656 13.4192 35.5607C15.4269 35.1142 17.5533 34.4295 19.7269 33.5146H19.7267Z" fill="#2B7FFF"/>
</svg>
