<svg width="33" height="33" viewBox="0 0 33 33" fill="none" xmlns="http://www.w3.org/2000/svg">
<path d="M16.0781 8.53125C14.5855 8.53125 13.1264 8.97387 11.8853 9.80313C10.6442 10.6324 9.67693 11.811 9.10572 13.1901C8.53452 14.5691 8.38506 16.0865 8.67626 17.5504C8.96746 19.0144 9.68623 20.3591 10.7417 21.4146C11.7971 22.47 13.1419 23.1888 14.6058 23.48C16.0698 23.7712 17.5872 23.6217 18.9662 23.0505C20.3452 22.4793 21.5239 21.512 22.3531 20.2709C23.1824 19.0299 23.625 17.5708 23.625 16.0781C23.625 14.0766 22.8299 12.157 21.4146 10.7417C19.9993 9.32637 18.0797 8.53125 16.0781 8.53125ZM16.0781 21.6562C14.9749 21.6562 13.8964 21.3291 12.9791 20.7162C12.0618 20.1032 11.3468 19.232 10.9246 18.2128C10.5024 17.1935 10.3919 16.0719 10.6072 14.9899C10.8224 13.9078 11.3537 12.9139 12.1338 12.1338C12.9139 11.3537 13.9078 10.8224 14.9899 10.6072C16.0719 10.3919 17.1935 10.5024 18.2128 10.9246C19.232 11.3468 20.1032 12.0618 20.7162 12.9791C21.3291 13.8964 21.6562 14.9749 21.6562 16.0781C21.6519 17.5562 21.0628 18.9725 20.0177 20.0177C18.9725 21.0628 17.5562 21.6519 16.0781 21.6562ZM23.2969 0H8.85938C6.50972 0 4.25631 0.933396 2.59485 2.59485C0.933396 4.25631 0 6.50972 0 8.85938V23.2969C0 25.6465 0.933396 27.8999 2.59485 29.5614C4.25631 31.2229 6.50972 32.1562 8.85938 32.1562H23.2969C25.6465 32.1562 27.8999 31.2229 29.5614 29.5614C31.2229 27.8999 32.1562 25.6465 32.1562 23.2969V8.85938C32.1562 6.50972 31.2229 4.25631 29.5614 2.59485C27.8999 0.933396 25.6465 0 23.2969 0ZM30.1875 23.2969C30.1875 25.1244 29.4615 26.877 28.1693 28.1693C26.877 29.4615 25.1244 30.1875 23.2969 30.1875H8.85938C7.03187 30.1875 5.27921 29.4615 3.98697 28.1693C2.69472 26.877 1.96875 25.1244 1.96875 23.2969V8.85938C1.96875 7.03187 2.69472 5.27921 3.98697 3.98697C5.27921 2.69472 7.03187 1.96875 8.85938 1.96875H23.2969C25.1244 1.96875 26.877 2.69472 28.1693 3.98697C29.4615 5.27921 30.1875 7.03187 30.1875 8.85938V23.2969ZM26.25 7.54688C26.25 7.87136 26.1538 8.18856 25.9735 8.45836C25.7932 8.72816 25.537 8.93844 25.2372 9.06261C24.9374 9.18679 24.6076 9.21928 24.2893 9.15598C23.9711 9.09267 23.6787 8.93642 23.4493 8.70697C23.2198 8.47753 23.0636 8.18519 23.0003 7.86695C22.937 7.5487 22.9695 7.21882 23.0936 6.91903C23.2178 6.61925 23.4281 6.36302 23.6979 6.18274C23.9677 6.00247 24.2849 5.90625 24.6094 5.90625C25.0445 5.90625 25.4618 6.0791 25.7695 6.38678C26.0772 6.69445 26.25 7.11175 26.25 7.54688Z" fill="white"/>
</svg>
