<svg width="43" height="36" viewBox="0 0 43 36" fill="none" xmlns="http://www.w3.org/2000/svg">
<path d="M42.0155 8.38178C41.6363 8.03807 41.1775 7.81741 40.6906 7.74454C40.2038 7.67168 39.7081 7.7495 39.2592 7.96928L29.7905 12.5893C29.7487 12.6143 29.7029 12.6299 29.6556 12.6352C29.6083 12.6404 29.5605 12.6352 29.5151 12.6198C29.4697 12.6044 29.4275 12.5792 29.3911 12.5456C29.3546 12.512 29.3247 12.4708 29.303 12.4243L23.7717 1.49303C23.5474 1.04116 23.2167 0.664064 22.8141 0.401351C22.4116 0.138637 21.9522 0 21.4842 0C21.0162 0 20.5568 0.138637 20.1543 0.401351C19.7518 0.664064 19.421 1.04116 19.1967 1.49303L13.6655 12.4243C13.6437 12.4708 13.6138 12.512 13.5774 12.5456C13.5409 12.5792 13.4988 12.6044 13.4533 12.6198C13.4079 12.6352 13.3601 12.6404 13.3128 12.6352C13.2655 12.6299 13.2197 12.6143 13.178 12.5893L3.70921 7.96928C3.26188 7.74611 2.7666 7.66549 2.27968 7.73656C1.79276 7.80764 1.33374 8.02757 0.954805 8.37135C0.575869 8.71513 0.292221 9.16896 0.136109 9.68125C-0.0200029 10.1935 -0.042315 10.7437 0.0717094 11.2693L4.85296 33.6061C4.93393 33.9836 5.08369 34.3391 5.29318 34.6511C5.50266 34.9631 5.76752 35.225 6.07171 35.4212C6.47244 35.6909 6.93314 35.8337 7.40296 35.8337C7.64338 35.8312 7.88264 35.7966 8.11546 35.7305C16.8567 33.0704 26.0896 33.0633 34.8342 35.7099C35.1753 35.8182 35.5328 35.8493 35.8852 35.8012C36.2375 35.7532 36.5773 35.627 36.8841 35.4303C37.1908 35.2337 37.4581 34.9706 37.6697 34.6571C37.8814 34.3435 38.033 33.986 38.1155 33.6061L42.878 11.2693C42.9969 10.7475 42.9791 10.1993 42.8264 9.68829C42.6738 9.17724 42.3926 8.72423 42.0155 8.38178ZM40.703 10.6918L35.9217 33.0287C35.896 33.1372 35.8362 33.2321 35.753 33.2968C35.6598 33.3466 35.5544 33.3611 35.453 33.338C26.3116 30.5604 16.6568 30.5604 7.51546 33.338C7.46618 33.3534 7.41456 33.3575 7.36379 33.3501C7.31302 33.3427 7.26416 33.3239 7.22024 33.2949C7.17632 33.2659 7.13827 33.2273 7.10842 33.1815C7.07857 33.1357 7.05757 33.0837 7.04671 33.0287L2.26546 10.6918C2.25456 10.6301 2.25598 10.5666 2.26963 10.5056C2.28328 10.4446 2.30883 10.3876 2.3445 10.3385C2.38018 10.2895 2.42513 10.2495 2.47623 10.2215C2.52734 10.1935 2.58337 10.178 2.64046 10.1762L2.79046 10.2174L12.278 14.858C12.8763 15.1544 13.5542 15.1916 14.1764 14.9622C14.7985 14.7328 15.3191 14.2537 15.6342 13.6205L21.1655 2.68928C21.195 2.62412 21.2405 2.56931 21.2968 2.53101C21.3531 2.4927 21.418 2.47241 21.4842 2.47241C21.5504 2.47241 21.6153 2.4927 21.6716 2.53101C21.7279 2.56931 21.7734 2.62412 21.803 2.68928L27.3342 13.6205C27.6493 14.2537 28.1699 14.7328 28.792 14.9622C29.4142 15.1916 30.0921 15.1544 30.6905 14.858L40.178 10.2174C40.2423 10.1861 40.3133 10.1752 40.3829 10.1862C40.4525 10.1971 40.518 10.2294 40.5717 10.2793C40.6265 10.3276 40.6679 10.3919 40.6911 10.4648C40.7143 10.5378 40.7184 10.6164 40.703 10.6918ZM28.6092 26.3668C28.5772 26.6713 28.4453 26.9525 28.2381 27.1576C28.031 27.3627 27.7629 27.4775 27.4842 27.4805H27.3717C23.4566 27.0474 19.5118 27.0474 15.5967 27.4805C15.301 27.5153 15.0048 27.4198 14.7729 27.2149C14.541 27.0101 14.3922 26.7125 14.3592 26.3874C14.3329 26.06 14.4241 25.7342 14.6133 25.4798C14.8025 25.2254 15.0747 25.0626 15.3717 25.0262C19.4353 24.5518 23.5331 24.5518 27.5967 25.0262C27.8902 25.0626 28.1595 25.2225 28.3482 25.4724C28.5369 25.7223 28.6304 26.0428 28.6092 26.3668Z" fill="#2B7FFF"/>
</svg>
